# xmcd
# 
# Track frame offsets:
#     150
#     12527
#     25844
#     42191
#     60657
#     77225
#     90925
#     105538
#     115996
#     138782
#     152450
#     162330
#     180540
# 
# Disc length: 2595
# 
# Revision: 1
# Processed by: cddbd v1.5.2PL0 Copyright (c) Steve Scherf et al.
# Submitted via: fre:ac v1.0.31
# 
DISCID=950a210d
DTITLE=Cedric Burnside Project - Descendants Of Hill Country
DYEAR=2015
DGENRE=Blues
TTITLE0=Born With It
TTITLE1=Hard Times
TTITLE2=Front Porch
TTITLE3=Don't Shoot The Dice
TTITLE4=Going Away Baby
TTITLE5=Airport
TTITLE6=You Just Wait And See
TTITLE7=Tell Me What I'm Gonna Do
TTITLE8=This Is For Soldiers
TTITLE9=Skinny Woman
TTITLE10=That Changes Everything
TTITLE11=Down In The Delta
TTITLE12=Love Her Til I Die
EXTD=
EXTT0=
EXTT1=
EXTT2=
EXTT3=
EXTT4=
EXTT5=
EXTT6=
EXTT7=
EXTT8=
EXTT9=
EXTT10=
EXTT11=
EXTT12=
PLAYORDER=
